<svg width="277" height="277" viewBox="0 0 277 277" fill="none" xmlns="http://www.w3.org/2000/svg">
<ellipse cx="138.527" cy="139" rx="26.5" ry="26" fill="#4A9EB9"/>
<path d="M138.027 103.032L121.347 20.583C119.196 9.94957 127.334 0.0153476 138.183 0.0317631C149.032 0.0481786 157.14 10.007 154.956 20.6338L138.027 103.032Z" fill="#4A9EB9"/>
<path d="M138.027 173.021L154.914 255.427C157.092 266.055 148.979 276.01 138.13 276.021C127.281 276.032 119.148 266.093 121.305 255.461L138.027 173.021Z" fill="#4A9EB9"/>
<path d="M155.532 107.68L182.311 27.9377C185.765 17.6533 197.78 13.1191 207.167 18.5577C216.554 23.9964 218.597 36.675 211.392 44.7865L155.532 107.68Z" fill="#4A9EB9"/>
<path d="M120.537 168.293L93.9588 248.103C90.531 258.396 78.5274 262.96 69.1265 257.545C59.7257 252.13 57.6514 239.456 64.8353 231.327L120.537 168.293Z" fill="#4A9EB9"/>
<path d="M168.367 120.459L231.43 64.7892C239.563 57.6094 252.236 59.6902 257.646 69.0938C263.056 78.4974 258.486 90.4987 248.191 93.9212L168.367 120.459Z" fill="#4A9EB9"/>
<path d="M107.755 155.453L44.8324 211.281C36.7173 218.482 24.0397 216.433 18.6058 207.043C13.172 197.653 17.7123 185.64 27.9986 182.192L107.755 155.453Z" fill="#4A9EB9"/>
<path d="M173.094 137.943L255.543 121.263C266.176 119.112 276.11 127.25 276.094 138.099C276.078 148.948 266.119 157.056 255.492 154.872L173.094 137.943Z" fill="#4A9EB9"/>
<path d="M103.105 137.943L20.6983 154.83C10.0703 157.008 0.115693 148.895 0.104848 138.046C0.0940036 127.197 10.0324 119.064 20.6647 121.221L103.105 137.943Z" fill="#4A9EB9"/>
<path d="M168.445 155.448L248.188 182.227C258.473 185.681 263.007 197.696 257.568 207.083C252.129 216.47 239.451 218.513 231.339 211.308L168.445 155.448Z" fill="#4A9EB9"/>
<path d="M107.833 120.453L28.0232 93.8749C17.7301 90.4471 13.1658 78.4435 18.5808 69.0427C23.9959 59.6419 36.6693 57.5676 44.7989 64.7515L107.833 120.453Z" fill="#4A9EB9"/>
<path d="M120.543 107.758L64.873 44.6957C57.6933 36.5625 59.7741 23.8901 69.1777 18.4799C78.5813 13.0697 90.5825 17.6401 94.0051 27.935L120.543 107.758Z" fill="#4A9EB9"/>
<path d="M155.537 168.371L211.365 231.293C218.565 239.409 216.516 252.086 207.126 257.52C197.737 262.954 185.724 258.413 182.275 248.127L155.537 168.371Z" fill="#4A9EB9"/>
</svg>
