<svg width="277" height="277" viewBox="0 0 277 277" fill="none" xmlns="http://www.w3.org/2000/svg">
<ellipse cx="138.443" cy="139" rx="26.5" ry="26" fill="#4AB969"/>
<path d="M137.943 103.032L121.263 20.583C119.112 9.94957 127.25 0.0153476 138.099 0.0317631C148.948 0.0481786 157.056 10.007 154.872 20.6338L137.943 103.032Z" fill="#4AB969"/>
<path d="M137.943 173.021L154.83 255.427C157.008 266.055 148.895 276.01 138.046 276.021C127.197 276.032 119.064 266.093 121.221 255.461L137.943 173.021Z" fill="#4AB969"/>
<path d="M155.448 107.68L182.227 27.9377C185.681 17.6533 197.696 13.1191 207.083 18.5577C216.47 23.9964 218.513 36.675 211.308 44.7865L155.448 107.68Z" fill="#4AB969"/>
<path d="M120.453 168.293L93.8749 248.103C90.4471 258.396 78.4435 262.96 69.0427 257.545C59.6419 252.13 57.5675 239.456 64.7515 231.327L120.453 168.293Z" fill="#4AB969"/>
<path d="M168.284 120.459L231.346 64.7892C239.479 57.6094 252.152 59.6902 257.562 69.0938C262.972 78.4974 258.402 90.4987 248.107 93.9212L168.284 120.459Z" fill="#4AB969"/>
<path d="M107.671 155.453L44.7486 211.281C36.6334 218.482 23.9558 216.433 18.522 207.043C13.0882 197.653 17.6285 185.64 27.9147 182.192L107.671 155.453Z" fill="#4AB969"/>
<path d="M173.01 137.943L255.459 121.263C266.092 119.112 276.027 127.25 276.01 138.099C275.994 148.948 266.035 157.056 255.408 154.872L173.01 137.943Z" fill="#4AB969"/>
<path d="M103.021 137.943L20.6145 154.83C9.98647 157.008 0.0318303 148.895 0.0209858 138.046C0.0101413 127.197 9.94853 119.064 20.5809 121.221L103.021 137.943Z" fill="#4AB969"/>
<path d="M168.362 155.448L248.104 182.227C258.389 185.681 262.923 197.696 257.484 207.083C252.045 216.47 239.367 218.513 231.255 211.308L168.362 155.448Z" fill="#4AB969"/>
<path d="M107.749 120.453L27.9393 93.8749C17.6462 90.4471 13.0819 78.4435 18.4969 69.0427C23.912 59.6419 36.5854 57.5676 44.715 64.7515L107.749 120.453Z" fill="#4AB969"/>
<path d="M120.459 107.758L64.7892 44.6957C57.6094 36.5625 59.6902 23.8901 69.0938 18.4799C78.4974 13.0697 90.4987 17.6401 93.9212 27.935L120.459 107.758Z" fill="#4AB969"/>
<path d="M155.453 168.371L211.281 231.293C218.482 239.409 216.433 252.086 207.043 257.52C197.653 262.954 185.64 258.413 182.192 248.127L155.453 168.371Z" fill="#4AB969"/>
</svg>
