<svg width="277" height="277" viewBox="0 0 277 277" fill="none" xmlns="http://www.w3.org/2000/svg">
<ellipse cx="138.485" cy="139" rx="26.5" ry="26" fill="#B9654A"/>
<path d="M137.985 103.032L121.305 20.583C119.154 9.94957 127.292 0.0153476 138.141 0.0317631C148.99 0.0481786 157.098 10.007 154.914 20.6338L137.985 103.032Z" fill="#B9654A"/>
<path d="M137.985 173.021L154.872 255.427C157.05 266.055 148.937 276.01 138.088 276.021C127.239 276.032 119.106 266.093 121.263 255.461L137.985 173.021Z" fill="#B9654A"/>
<path d="M155.49 107.68L182.269 27.9377C185.723 17.6533 197.738 13.1191 207.125 18.5577C216.512 23.9964 218.555 36.675 211.35 44.7865L155.49 107.68Z" fill="#B9654A"/>
<path d="M120.495 168.293L93.9169 248.103C90.489 258.396 78.4854 262.96 69.0846 257.545C59.6838 252.13 57.6095 239.456 64.7934 231.327L120.495 168.293Z" fill="#B9654A"/>
<path d="M168.326 120.459L231.388 64.7892C239.521 57.6094 252.194 59.6902 257.604 69.0938C263.014 78.4974 258.444 90.4987 248.149 93.9212L168.326 120.459Z" fill="#B9654A"/>
<path d="M107.713 155.453L44.7905 211.281C36.6754 218.482 23.9978 216.433 18.5639 207.043C13.1301 197.653 17.6704 185.64 27.9566 182.192L107.713 155.453Z" fill="#B9654A"/>
<path d="M173.052 137.943L255.501 121.263C266.134 119.112 276.069 127.25 276.052 138.099C276.036 148.948 266.077 157.056 255.45 154.872L173.052 137.943Z" fill="#B9654A"/>
<path d="M103.063 137.943L20.6564 154.83C10.0284 157.008 0.0737615 148.895 0.0629169 138.046C0.0520724 127.197 9.99046 119.064 20.6228 121.221L103.063 137.943Z" fill="#B9654A"/>
<path d="M168.403 155.448L248.146 182.227C258.431 185.681 262.965 197.696 257.526 207.083C252.087 216.47 239.409 218.513 231.297 211.308L168.403 155.448Z" fill="#B9654A"/>
<path d="M107.791 120.453L27.9813 93.8749C17.6882 90.4471 13.1238 78.4435 18.5389 69.0427C23.9539 59.6419 36.6274 57.5676 44.7569 64.7515L107.791 120.453Z" fill="#B9654A"/>
<path d="M120.501 107.758L64.8311 44.6957C57.6514 36.5625 59.7322 23.8901 69.1358 18.4799C78.5394 13.0697 90.5406 17.6401 93.9632 27.935L120.501 107.758Z" fill="#B9654A"/>
<path d="M155.495 168.371L211.323 231.293C218.523 239.409 216.475 252.086 207.085 257.52C197.695 262.954 185.682 258.413 182.233 248.127L155.495 168.371Z" fill="#B9654A"/>
</svg>
