<svg width="277" height="277" viewBox="0 0 277 277" fill="none" xmlns="http://www.w3.org/2000/svg">
<ellipse cx="138.569" cy="139" rx="26.5" ry="26" fill="#B94A79"/>
<path d="M138.069 103.032L121.389 20.583C119.238 9.94957 127.376 0.0153476 138.225 0.0317631C149.074 0.0481786 157.182 10.007 154.998 20.6338L138.069 103.032Z" fill="#B94A79"/>
<path d="M138.069 173.021L154.956 255.427C157.134 266.055 149.021 276.01 138.172 276.021C127.323 276.032 119.19 266.093 121.346 255.461L138.069 173.021Z" fill="#B94A79"/>
<path d="M155.574 107.68L182.353 27.9377C185.807 17.6533 197.822 13.1191 207.209 18.5577C216.596 23.9964 218.638 36.675 211.434 44.7865L155.574 107.68Z" fill="#B94A79"/>
<path d="M120.579 168.293L94.0007 248.103C90.5729 258.396 78.5693 262.96 69.1685 257.545C59.7677 252.13 57.6934 239.456 64.8773 231.327L120.579 168.293Z" fill="#B94A79"/>
<path d="M168.409 120.459L231.472 64.7892C239.605 57.6094 252.278 59.6902 257.688 69.0938C263.098 78.4974 258.528 90.4987 248.233 93.9212L168.409 120.459Z" fill="#B94A79"/>
<path d="M107.797 155.453L44.8743 211.281C36.7592 218.482 24.0816 216.433 18.6478 207.043C13.214 197.653 17.7543 185.64 28.0405 182.192L107.797 155.453Z" fill="#B94A79"/>
<path d="M173.136 137.943L255.585 121.263C266.218 119.112 276.152 127.25 276.136 138.099C276.12 148.948 266.161 157.056 255.534 154.872L173.136 137.943Z" fill="#B94A79"/>
<path d="M103.147 137.943L20.7403 154.83C10.1123 157.008 0.157624 148.895 0.146779 138.046C0.135935 127.197 10.0743 119.064 20.7067 121.221L103.147 137.943Z" fill="#B94A79"/>
<path d="M168.487 155.448L248.23 182.227C258.514 185.681 263.049 197.696 257.61 207.083C252.171 216.47 239.493 218.513 231.381 211.308L168.487 155.448Z" fill="#B94A79"/>
<path d="M107.875 120.453L28.0651 93.8749C17.772 90.4471 13.2077 78.4435 18.6227 69.0427C24.0377 59.6419 36.7112 57.5676 44.8407 64.7515L107.875 120.453Z" fill="#B94A79"/>
<path d="M120.585 107.758L64.915 44.6957C57.7352 36.5625 59.816 23.8901 69.2196 18.4799C78.6232 13.0697 90.6245 17.6401 94.047 27.935L120.585 107.758Z" fill="#B94A79"/>
<path d="M155.579 168.371L211.407 231.293C218.607 239.409 216.558 252.086 207.168 257.52C197.778 262.954 185.766 258.413 182.317 248.127L155.579 168.371Z" fill="#B94A79"/>
</svg>
