<?xml version="1.0" encoding="UTF-8"?><svg id="Layer_1" xmlns="http://www.w3.org/2000/svg" viewBox="0 0 173.07 36.9"><defs><style>.cls-1{fill:#3d54a5;}</style></defs><path class="cls-1" d="m0,25.99l9.3-1.84c.78,2.88,2.79,4.33,6.02,4.33,2.52,0,3.78-.73,3.78-2.2,0-.77-.29-1.37-.87-1.8s-1.62-.81-3.12-1.14c-5.72-1.2-9.39-2.78-11.02-4.72s-2.44-4.22-2.44-6.85c0-3.37,1.17-6.18,3.5-8.42C7.48,1.12,10.84,0,15.22,0c6.64,0,11.03,2.93,13.17,8.79l-8.29,2.75c-.86-2.39-2.6-3.59-5.23-3.59-2.18,0-3.27.74-3.27,2.23,0,.66.25,1.18.74,1.55s1.45.72,2.87,1.05c3.9.91,6.68,1.71,8.32,2.4,1.64.7,3.01,1.89,4.11,3.58,1.1,1.69,1.65,3.68,1.65,5.97,0,3.62-1.34,6.56-4.01,8.8-2.68,2.25-6.19,3.37-10.54,3.37C6.77,36.9,1.86,33.26,0,25.99Z"/><path class="cls-1" d="m50.74,36.35l-1.84-7.05h-8.74l-1.96,7.05h-8.13L40.14.55h10.58l10.23,35.8h-10.22Zm-8.88-14.87h5.28l-2.64-10.38-2.64,10.38Z"/><path class="cls-1" d="m63.97,36.35V.55h16.56c3.44,0,5.95.95,7.53,2.86s2.37,4.08,2.37,6.53c0,1.78-.46,3.4-1.37,4.84-.92,1.44-2.28,2.43-4.1,2.98,4.22,1.12,6.33,3.9,6.33,8.34,0,2.66-.75,5.03-2.23,7.12-1.49,2.09-4.67,3.13-9.55,3.13h-15.53Zm9.22-22.08h4.63c1.16,0,1.98-.32,2.46-.97.48-.65.72-1.34.72-2.07,0-1.99-1.12-2.99-3.34-2.99h-4.47v6.03Zm0,14.11h4.87c1.21,0,2.1-.33,2.66-.98.56-.66.85-1.39.85-2.22s-.28-1.58-.82-2.27c-.55-.69-1.56-1.04-3.02-1.04h-4.54v6.5Z"/><path class="cls-1" d="m124.44,36.35h-11.1l-4.76-13.69h-3.16v13.69h-10.01V.55h17.04c3.76,0,6.68.97,8.76,2.9s3.12,4.48,3.12,7.64c0,2.06-.38,3.89-1.15,5.47-.76,1.58-2.31,2.98-4.63,4.18l5.9,15.6Zm-19.02-21.35h4.28c1.26,0,2.27-.29,3.03-.87s1.15-1.42,1.15-2.54c0-2.29-1.28-3.44-3.85-3.44h-4.61v6.84Z"/><path class="cls-1" d="m139.18.55v35.8h-10.01V.55h10.01Z"/><path class="cls-1" d="m162.85,36.35l-1.84-7.05h-8.74l-1.96,7.05h-8.13L152.25.55h10.58l10.23,35.8h-10.22Zm-8.88-14.87h5.28l-2.64-10.38-2.64,10.38Z"/></svg>